<?xml version="1.0" encoding="UTF-8" standalone="no"?>
<!-- Created with Inkscape (http://www.inkscape.org/) -->

<svg
   width="84.492271mm"
   height="29.301657mm"
   viewBox="0 0 84.492273 29.301655"
   version="1.1"
   id="svg4145"
   inkscape:version="1.2 (1:1.2.1+202207142221+cd75a1ee6d)"
   sodipodi:docname="OpenFertility.svg"
   inkscape:export-filename="OpenFertility.png"
   inkscape:export-xdpi="230.87555"
   inkscape:export-ydpi="230.87555"
   xmlns:inkscape="http://www.inkscape.org/namespaces/inkscape"
   xmlns:sodipodi="http://sodipodi.sourceforge.net/DTD/sodipodi-0.dtd"
   xmlns="http://www.w3.org/2000/svg"
   xmlns:svg="http://www.w3.org/2000/svg">
  <sodipodi:namedview
     id="namedview4147"
     pagecolor="#ffffff"
     bordercolor="#666666"
     borderopacity="1.0"
     inkscape:showpageshadow="2"
     inkscape:pageopacity="0.0"
     inkscape:pagecheckerboard="0"
     inkscape:deskcolor="#d1d1d1"
     inkscape:document-units="mm"
     showgrid="false"
     inkscape:zoom="1.7916822"
     inkscape:cx="365.29917"
     inkscape:cy="47.162383"
     inkscape:window-width="3440"
     inkscape:window-height="1376"
     inkscape:window-x="0"
     inkscape:window-y="27"
     inkscape:window-maximized="1"
     inkscape:current-layer="layer1" />
  <defs
     id="defs4142" />
  <g
     inkscape:label="Layer 1"
     inkscape:groupmode="layer"
     id="layer1"
     transform="translate(-64.380468,-103.74589)">
    <g
       id="g3918"
       transform="translate(-365.61154,-1211.3084)">
      <g
         id="g3072"
         style="fill:#805ab4;fill-opacity:1">
        <path
           d="m 468.16478,1327.1076 q -0.49026,0 -0.75173,-0.2616 -0.26147,-0.2615 -0.26147,-0.7681 v -9.135 q 0,-0.5065 0.26147,-0.7681 0.26147,-0.2615 0.73538,-0.2615 0.49026,0 0.75173,0.2615 0.26147,0.2616 0.26147,0.7681 v 1.2746 l -0.17976,-0.4902 q 0.24512,-0.8334 0.99685,-1.3399 0.76806,-0.5066 1.78125,-0.5066 1.04588,0 1.83028,0.5066 0.80075,0.5065 1.24198,1.438 0.44123,0.9152 0.44123,2.2062 0,1.2746 -0.44123,2.2225 -0.44123,0.9314 -1.22563,1.438 -0.78441,0.5066 -1.84663,0.5066 -0.99685,0 -1.74857,-0.4902 -0.75172,-0.5066 -1.01319,-1.3074 h 0.1961 v 3.6769 q 0,0.5066 -0.27781,0.7681 -0.26147,0.2615 -0.75172,0.2615 z m 3.02323,-4.4613 q 0.60465,0 1.06222,-0.2942 0.45757,-0.2942 0.70269,-0.8661 0.26147,-0.5883 0.26147,-1.4544 0,-1.3074 -0.55562,-1.9447 -0.55562,-0.6538 -1.47076,-0.6538 -0.60465,0 -1.06222,0.2942 -0.45757,0.2779 -0.71904,0.8661 -0.24512,0.572 -0.24512,1.4382 0,1.2909 0.55562,1.961 0.55562,0.6537 1.47076,0.6537 z"
           style="font-weight:bold;font-size:16.3418px;line-height:0.9;font-family:Nunito;-inkscape-font-specification:'Nunito, Bold';text-align:center;letter-spacing:-0.22379px;text-anchor:middle;fill:#805ab4;fill-opacity:1;stroke-width:0.408547"
           id="path2325" />
        <path
           d="m 480.67126,1324.1987 q -1.35637,0 -2.33688,-0.5066 -0.98051,-0.5066 -1.51979,-1.438 -0.52294,-0.9315 -0.52294,-2.2062 0,-1.242 0.5066,-2.1734 0.52294,-0.9315 1.42174,-1.4545 0.91514,-0.5392 2.0754,-0.5392 0.84978,0 1.51979,0.2778 0.68636,0.2778 1.16027,0.8007 0.49025,0.523 0.73538,1.2747 0.26147,0.7354 0.26147,1.6668 0,0.2942 -0.21244,0.4576 -0.19611,0.147 -0.57197,0.147 h -5.24572 v -1.1766 h 4.59205 l -0.26147,0.2452 q 0,-0.7517 -0.22878,-1.2583 -0.21245,-0.5066 -0.63733,-0.7681 -0.40855,-0.2778 -1.02954,-0.2778 -0.68635,0 -1.17661,0.3268 -0.47391,0.3105 -0.73538,0.8988 -0.24512,0.5719 -0.24512,1.3728 v 0.1143 q 0,1.34 0.62098,2.0101 0.63733,0.6537 1.86297,0.6537 0.42489,0 0.94782,-0.098 0.53928,-0.1144 1.0132,-0.3758 0.34317,-0.1962 0.60464,-0.1635 0.26147,0.016 0.40855,0.1797 0.16341,0.1634 0.1961,0.4085 0.0327,0.2288 -0.0981,0.474 -0.1144,0.2451 -0.40855,0.4248 -0.57196,0.3596 -1.32368,0.5393 -0.73538,0.1634 -1.37271,0.1634 z"
           style="font-weight:bold;font-size:16.3418px;line-height:0.9;font-family:Nunito;-inkscape-font-specification:'Nunito, Bold';text-align:center;letter-spacing:-0.22379px;text-anchor:middle;fill:#805ab4;fill-opacity:1;stroke-width:0.408547"
           id="path2327" />
        <path
           d="m 486.37954,1324.1661 q -0.49026,0 -0.75173,-0.2615 -0.26147,-0.2778 -0.26147,-0.7844 v -6.1773 q 0,-0.5065 0.26147,-0.7681 0.26147,-0.2615 0.73538,-0.2615 0.47392,0 0.73539,0.2615 0.26146,0.2616 0.26146,0.7681 v 1.1113 l -0.17976,-0.4085 q 0.35952,-0.8661 1.11125,-1.3074 0.76806,-0.4575 1.73223,-0.4575 0.96416,0 1.58515,0.3595 0.62099,0.3595 0.93148,1.0949 0.3105,0.719 0.3105,1.8303 v 3.9547 q 0,0.5066 -0.26147,0.7844 -0.26147,0.2615 -0.75172,0.2615 -0.49026,0 -0.76807,-0.2615 -0.26147,-0.2778 -0.26147,-0.7844 v -3.8567 q 0,-0.9315 -0.35952,-1.3564 -0.34317,-0.4248 -1.07855,-0.4248 -0.8988,0 -1.43808,0.5719 -0.52294,0.5556 -0.52294,1.4871 v 3.5789 q 0,1.0459 -1.02953,1.0459 z"
           style="font-weight:bold;font-size:16.3418px;line-height:0.9;font-family:Nunito;-inkscape-font-specification:'Nunito, Bold';text-align:center;letter-spacing:-0.22379px;text-anchor:middle;fill:#805ab4;fill-opacity:1;stroke-width:0.408547"
           id="path2329" />
      </g>
      <g
         id="g3067"
         style="fill:#5ab4b4;fill-opacity:1"
         transform="translate(-0.08983626,0.06630312)">
        <path
           d="m 462.57912,1339.5684 q -0.49026,0 -0.76807,-0.2614 -0.26147,-0.2779 -0.26147,-0.7844 v -5.5399 h -0.75172 q -0.3922,0 -0.60465,-0.1961 -0.21244,-0.2125 -0.21244,-0.572 0,-0.3758 0.21244,-0.5719 0.21245,-0.1961 0.60465,-0.1961 h 1.34003 l -0.58831,0.5392 v -0.5556 q 0,-1.6832 0.84978,-2.5166 0.84977,-0.8498 2.45127,-0.9969 l 0.55562,-0.049 q 0.32684,-0.033 0.52294,0.1144 0.1961,0.1307 0.26147,0.3595 0.0654,0.2125 0.0163,0.4412 -0.049,0.2288 -0.21245,0.4086 -0.14707,0.1634 -0.3922,0.1797 l -0.22878,0.016 q -0.93149,0.065 -1.35637,0.4739 -0.42489,0.4085 -0.42489,1.242 v 0.6046 l -0.26147,-0.2614 h 1.65052 q 0.39221,0 0.60465,0.1961 0.21244,0.1961 0.21244,0.5719 0,0.3595 -0.21244,0.572 -0.21244,0.1961 -0.60465,0.1961 h -1.38905 v 5.5399 q 0,1.0458 -1.01319,1.0458 z"
           style="font-weight:bold;font-size:16.3418px;line-height:0.9;font-family:Nunito;-inkscape-font-specification:'Nunito, Bold';text-align:center;letter-spacing:-0.22379px;text-anchor:middle;fill:#5ab4b4;fill-opacity:1;stroke-width:0.408547"
           id="path2333" />
        <path
           d="m 470.46086,1339.6011 q -1.35637,0 -2.33688,-0.5066 -0.98051,-0.5066 -1.51979,-1.4381 -0.52294,-0.9314 -0.52294,-2.2061 0,-1.242 0.5066,-2.1735 0.52294,-0.9314 1.42174,-1.4544 0.91514,-0.5393 2.07541,-0.5393 0.84977,0 1.51978,0.2778 0.68636,0.2779 1.16027,0.8008 0.49026,0.5229 0.73538,1.2747 0.26147,0.7353 0.26147,1.6668 0,0.2942 -0.21244,0.4576 -0.1961,0.1471 -0.57197,0.1471 h -5.24571 v -1.1766 h 4.59204 l -0.26147,0.2451 q 0,-0.7517 -0.22878,-1.2583 -0.21244,-0.5066 -0.63733,-0.7681 -0.40855,-0.2778 -1.02953,-0.2778 -0.68636,0 -1.17661,0.3268 -0.47392,0.3105 -0.73539,0.8988 -0.24512,0.572 -0.24512,1.3727 v 0.1144 q 0,1.3401 0.62099,2.0101 0.63733,0.6536 1.86296,0.6536 0.42489,0 0.94783,-0.098 0.53928,-0.1144 1.01319,-0.3759 0.34318,-0.1961 0.60464,-0.1634 0.26147,0.016 0.40855,0.1798 0.16342,0.1634 0.1961,0.4085 0.0327,0.2288 -0.0981,0.4739 -0.11439,0.2452 -0.40855,0.4249 -0.57196,0.3595 -1.32368,0.5393 -0.73538,0.1634 -1.37271,0.1634 z"
           style="font-weight:bold;font-size:16.3418px;line-height:0.9;font-family:Nunito;-inkscape-font-specification:'Nunito, Bold';text-align:center;letter-spacing:-0.22379px;text-anchor:middle;fill:#5ab4b4;fill-opacity:1;stroke-width:0.408547"
           id="path2335" />
        <path
           d="m 476.20182,1339.5684 q -0.50659,0 -0.7844,-0.2614 -0.26147,-0.2779 -0.26147,-0.7844 v -6.1772 q 0,-0.5066 0.26147,-0.7681 0.26146,-0.2615 0.73538,-0.2615 0.47391,0 0.73538,0.2615 0.26147,0.2615 0.26147,0.7681 v 1.0295 h -0.16342 q 0.22878,-0.9805 0.8988,-1.4871 0.67001,-0.5066 1.78125,-0.6047 0.34318,-0.033 0.53928,0.1798 0.21245,0.1961 0.24513,0.621 0.0327,0.4085 -0.1961,0.67 -0.21244,0.2451 -0.65367,0.2941 l -0.35952,0.033 q -0.99685,0.098 -1.50345,0.621 -0.50659,0.5066 -0.50659,1.4381 v 3.3828 q 0,0.5065 -0.26147,0.7844 -0.26147,0.2614 -0.76807,0.2614 z"
           style="font-weight:bold;font-size:16.3418px;line-height:0.9;font-family:Nunito;-inkscape-font-specification:'Nunito, Bold';text-align:center;letter-spacing:-0.22379px;text-anchor:middle;fill:#5ab4b4;fill-opacity:1;stroke-width:0.408547"
           id="path2337" />
        <path
           d="m 485.45628,1339.6011 q -1.06222,0 -1.78126,-0.3595 -0.7027,-0.3595 -1.04587,-1.0459 -0.34318,-0.7027 -0.34318,-1.7322 v -3.4808 h -0.84977 q -0.39221,0 -0.60465,-0.1961 -0.21245,-0.2125 -0.21245,-0.572 0,-0.3758 0.21245,-0.5719 0.21244,-0.1961 0.60465,-0.1961 h 0.84977 v -1.4872 q 0,-0.5065 0.26147,-0.768 0.27781,-0.2615 0.76806,-0.2615 0.49026,0 0.75172,0.2615 0.26147,0.2615 0.26147,0.768 v 1.4872 h 1.73223 q 0.39221,0 0.60465,0.1961 0.21244,0.1961 0.21244,0.5719 0,0.3595 -0.21244,0.572 -0.21244,0.1961 -0.60465,0.1961 h -1.73223 v 3.3664 q 0,0.7844 0.34318,1.1766 0.34318,0.3922 1.11124,0.3922 0.27781,0 0.49026,-0.049 0.21244,-0.049 0.37586,-0.065 0.1961,-0.016 0.32684,0.1307 0.13073,0.1308 0.13073,0.5557 0,0.3268 -0.11439,0.5883 -0.0981,0.2451 -0.37586,0.3432 -0.21245,0.065 -0.55563,0.1143 -0.34317,0.065 -0.60464,0.065 z"
           style="font-weight:bold;font-size:16.3418px;line-height:0.9;font-family:Nunito;-inkscape-font-specification:'Nunito, Bold';text-align:center;letter-spacing:-0.22379px;text-anchor:middle;fill:#5ab4b4;fill-opacity:1;stroke-width:0.408547"
           id="path2339" />
        <path
           d="m 489.07283,1339.5521 q -0.49025,0 -0.75172,-0.2942 -0.26147,-0.2941 -0.26147,-0.8171 v -5.9974 q 0,-0.5393 0.26147,-0.8171 0.26147,-0.2941 0.75172,-0.2941 0.49026,0 0.75172,0.2941 0.27782,0.2778 0.27782,0.8171 v 5.9974 q 0,0.523 -0.26147,0.8171 -0.26147,0.2942 -0.76807,0.2942 z m 0,-9.7397 q -0.57196,0 -0.8988,-0.2778 -0.31049,-0.2942 -0.31049,-0.8008 0,-0.5229 0.31049,-0.8007 0.32684,-0.2778 0.8988,-0.2778 0.58831,0 0.8988,0.2778 0.3105,0.2778 0.3105,0.8007 0,0.5066 -0.3105,0.8008 -0.31049,0.2778 -0.8988,0.2778 z"
           style="font-weight:bold;font-size:16.3418px;line-height:0.9;font-family:Nunito;-inkscape-font-specification:'Nunito, Bold';text-align:center;letter-spacing:-0.22379px;text-anchor:middle;fill:#5ab4b4;fill-opacity:1;stroke-width:0.408547"
           id="path2341" />
        <path
           d="m 494.73208,1339.6011 q -1.35637,0 -2.04273,-0.7681 -0.68635,-0.7844 -0.68635,-2.2878 v -7.7297 q 0,-0.5066 0.26146,-0.768 0.26147,-0.2615 0.75173,-0.2615 0.49025,0 0.75172,0.2615 0.27781,0.2614 0.27781,0.768 v 7.6316 q 0,0.7518 0.3105,1.1113 0.32683,0.3595 0.91514,0.3595 0.13073,0 0.24512,0 0.1144,-0.016 0.22879,-0.033 0.22878,-0.033 0.31049,0.1308 0.0817,0.147 0.0817,0.6209 0,0.4086 -0.16342,0.6374 -0.16341,0.2288 -0.53928,0.2778 -0.16341,0.016 -0.34317,0.033 -0.17976,0.016 -0.35952,0.016 z"
           style="font-weight:bold;font-size:16.3418px;line-height:0.9;font-family:Nunito;-inkscape-font-specification:'Nunito, Bold';text-align:center;letter-spacing:-0.22379px;text-anchor:middle;fill:#5ab4b4;fill-opacity:1;stroke-width:0.408547"
           id="path2343" />
        <path
           d="m 498.00543,1339.5521 q -0.49025,0 -0.75172,-0.2942 -0.26147,-0.2941 -0.26147,-0.8171 v -5.9974 q 0,-0.5393 0.26147,-0.8171 0.26147,-0.2941 0.75172,-0.2941 0.49026,0 0.75173,0.2941 0.27781,0.2778 0.27781,0.8171 v 5.9974 q 0,0.523 -0.26147,0.8171 -0.26147,0.2942 -0.76807,0.2942 z m 0,-9.7397 q -0.57196,0 -0.8988,-0.2778 -0.31049,-0.2942 -0.31049,-0.8008 0,-0.5229 0.31049,-0.8007 0.32684,-0.2778 0.8988,-0.2778 0.58831,0 0.8988,0.2778 0.3105,0.2778 0.3105,0.8007 0,0.5066 -0.3105,0.8008 -0.31049,0.2778 -0.8988,0.2778 z"
           style="font-weight:bold;font-size:16.3418px;line-height:0.9;font-family:Nunito;-inkscape-font-specification:'Nunito, Bold';text-align:center;letter-spacing:-0.22379px;text-anchor:middle;fill:#5ab4b4;fill-opacity:1;stroke-width:0.408547"
           id="path2345" />
        <path
           d="m 504.59616,1339.6011 q -1.06222,0 -1.78126,-0.3595 -0.70269,-0.3595 -1.04587,-1.0459 -0.34318,-0.7027 -0.34318,-1.7322 v -3.4808 h -0.84977 q -0.39221,0 -0.60465,-0.1961 -0.21244,-0.2125 -0.21244,-0.572 0,-0.3758 0.21244,-0.5719 0.21244,-0.1961 0.60465,-0.1961 h 0.84977 v -1.4872 q 0,-0.5065 0.26147,-0.768 0.27781,-0.2615 0.76807,-0.2615 0.49025,0 0.75172,0.2615 0.26147,0.2615 0.26147,0.768 v 1.4872 h 1.73223 q 0.3922,0 0.60464,0.1961 0.21245,0.1961 0.21245,0.5719 0,0.3595 -0.21245,0.572 -0.21244,0.1961 -0.60464,0.1961 h -1.73223 v 3.3664 q 0,0.7844 0.34317,1.1766 0.34318,0.3922 1.11125,0.3922 0.27781,0 0.49025,-0.049 0.21244,-0.049 0.37586,-0.065 0.1961,-0.016 0.32684,0.1307 0.13073,0.1308 0.13073,0.5557 0,0.3268 -0.11439,0.5883 -0.0981,0.2451 -0.37586,0.3432 -0.21244,0.065 -0.55562,0.1143 -0.34318,0.065 -0.60465,0.065 z"
           style="font-weight:bold;font-size:16.3418px;line-height:0.9;font-family:Nunito;-inkscape-font-specification:'Nunito, Bold';text-align:center;letter-spacing:-0.22379px;text-anchor:middle;fill:#5ab4b4;fill-opacity:1;stroke-width:0.408547"
           id="path2347" />
        <path
           d="m 509.14418,1342.51 q -0.35952,0 -0.5883,-0.1961 -0.22879,-0.1798 -0.27781,-0.4903 -0.0327,-0.3105 0.11439,-0.6537 l 1.11124,-2.4676 v 0.8498 l -2.97421,-6.8799 q -0.14707,-0.3595 -0.0981,-0.67 0.049,-0.3105 0.29416,-0.4903 0.26146,-0.1961 0.70269,-0.1961 0.37586,0 0.60465,0.1798 0.22879,0.1634 0.40854,0.6373 l 2.20615,5.5072 h -0.49026 l 2.25517,-5.5235 q 0.17976,-0.4576 0.42489,-0.621 0.24513,-0.1798 0.65367,-0.1798 0.35952,0 0.57196,0.1961 0.21245,0.1798 0.26147,0.4903 0.049,0.2941 -0.11439,0.6536 l -3.97106,9.0697 q -0.21244,0.4576 -0.45757,0.621 -0.24512,0.1635 -0.63733,0.1635 z"
           style="font-weight:bold;font-size:16.3418px;line-height:0.9;font-family:Nunito;-inkscape-font-specification:'Nunito, Bold';text-align:center;letter-spacing:-0.22379px;text-anchor:middle;fill:#5ab4b4;fill-opacity:1;stroke-width:0.408547"
           id="path2349" />
      </g>
      <path
         id="path2353"
         style="color:#000000;fill:#805ab4;fill-opacity:1;stroke-width:3.14074;stroke-linecap:round;stroke-linejoin:round"
         d="m 461.53824,1315.8597 c -0.73374,-0.015 -1.48262,0.1664 -2.17145,0.5638 -1.29189,0.7461 -2.08282,2.1208 -2.07842,3.6127 a 1.5705284,1.5705284 0 0 1 -0.005,0.034 c -0.0163,1.2228 -0.67265,2.3543 -1.73168,2.9667 a 1.5705284,1.5705284 0 0 1 -0.002,0 c -1.31435,0.7579 -2.98596,0.5674 -4.09949,-0.4625 a 1.5705284,1.5705284 0 0 1 -10e-4,0 c -0.002,0 -0.003,-3e-4 -0.005,0 a 1.5705284,1.5705284 0 0 1 -0.0155,-0.013 c -3.18051,-3.0149 -7.94608,-3.577 -11.74141,-1.386 a 1.5705284,1.5705284 0 0 1 -0.001,-5e-4 l -0.002,-5e-4 c -4.74243,2.739 -6.35441,8.7574 -3.61631,13.5005 v 5e-4 h 5.1e-4 c 2.73864,4.7428 8.75668,6.3561 13.49995,3.6184 l 10e-4,-5e-4 a 1.5705284,1.5705284 0 0 1 -10e-4,0 c 3.79508,-2.1914 5.69224,-6.5996 4.67155,-10.8614 a 1.5705284,1.5705284 0 0 1 -0.003,-0.02 h 5.2e-4 c -0.33517,-1.4793 0.33547,-3.0223 1.649,-3.7817 a 1.5705284,1.5705284 0 0 1 0.002,0 c 1.0599,-0.611 2.36786,-0.6142 3.43493,-0.017 a 1.5705284,1.5705284 0 0 1 0.032,0.013 c 1.28978,0.7498 2.87562,0.7521 4.16771,0.01 2.00301,-1.1574 2.67727,-3.6735 1.52084,-5.6772 h -5.2e-4 v -5e-4 c -0.57855,-1.0017 -1.49721,-1.6711 -2.52129,-1.9456 v -0.013 c -0.32003,-0.086 -0.65041,-0.1333 -0.98392,-0.1401 z m -0.0909,1.8459 a 2.3311775,2.3311775 0 0 1 2.33112,2.3311 2.3311775,2.3311775 0 0 1 -2.33112,2.3311 2.3311775,2.3311775 0 0 1 -2.33113,-2.3311 2.3311775,2.3311775 0 0 1 2.33113,-2.3311 z m -17.13746,4.9062 a 7.1261084,7.1261084 0 0 1 2.21744,0.233 7.1261084,7.1261084 0 0 1 5.03845,8.7276 7.1261084,7.1261084 0 0 1 -8.72712,5.0395 7.1261084,7.1261084 0 0 1 -5.03897,-8.7281 7.1261084,7.1261084 0 0 1 6.5102,-5.272 z" />
      <path
         id="path2355"
         style="color:#000000;fill:#5ab4b4;fill-opacity:1;stroke:none;stroke-width:0;stroke-linecap:round;stroke-linejoin:round;stroke-dasharray:none;stroke-opacity:1"
         d="m 437.62531,1317.3195 c -0.56837,0.3224 -1.12062,0.6871 -1.65187,1.0948 -5.66673,4.3482 -7.23805,12.2448 -3.66686,18.4307 l 2e-4,4e-4 2.2e-4,3e-4 c 3.57154,6.1857 11.19583,8.7732 17.79486,6.0397 6.59918,-2.7334 10.16002,-9.9549 8.31129,-16.8544 a 1.1048571,1.1048571 0 0 0 -1.35249,-0.7811 1.1048571,1.1048571 0 0 0 -0.78254,1.3534 c 1.56613,5.8449 -1.43241,11.9252 -7.02287,14.2409 -5.59032,2.3156 -12.00845,0.1364 -15.03406,-5.1036 l -2.2e-4,-4e-4 -2.1e-4,-4e-4 c -3.02527,-5.2403 -1.70335,-11.8881 3.09715,-15.5717 4.80063,-3.6837 11.5657,-3.2403 15.84443,1.0385 a 1.1048571,1.1048571 0 0 0 1.56331,0 1.1048571,1.1048571 0 0 0 -1.8e-4,-1.5618 c -4.57728,-4.5773 -11.60491,-5.4392 -17.10016,-2.3242 z" />
    </g>
  </g>
</svg>
