<?xml version="1.0" encoding="UTF-8" standalone="no"?>
<!-- Created with Inkscape (http://www.inkscape.org/) -->

<svg
   width="35.863979mm"
   height="29.303785mm"
   viewBox="0 0 35.86398 29.303784"
   version="1.1"
   id="svg4145"
   inkscape:version="1.2 (1:1.2.1+202207142221+cd75a1ee6d)"
   sodipodi:docname="OpenFertility_icon.svg"
   inkscape:export-filename="OpenFertility_icon.png"
   inkscape:export-xdpi="230.87555"
   inkscape:export-ydpi="230.87555"
   xmlns:inkscape="http://www.inkscape.org/namespaces/inkscape"
   xmlns:sodipodi="http://sodipodi.sourceforge.net/DTD/sodipodi-0.dtd"
   xmlns="http://www.w3.org/2000/svg"
   xmlns:svg="http://www.w3.org/2000/svg">
  <sodipodi:namedview
     id="namedview4147"
     pagecolor="#ffffff"
     bordercolor="#666666"
     borderopacity="1.0"
     inkscape:showpageshadow="2"
     inkscape:pageopacity="0.0"
     inkscape:pagecheckerboard="0"
     inkscape:deskcolor="#d1d1d1"
     inkscape:document-units="mm"
     showgrid="false"
     inkscape:zoom="5.665695"
     inkscape:cx="111.46029"
     inkscape:cy="50.037992"
     inkscape:window-width="3440"
     inkscape:window-height="1376"
     inkscape:window-x="0"
     inkscape:window-y="27"
     inkscape:window-maximized="1"
     inkscape:current-layer="g3918" />
  <defs
     id="defs4142" />
  <g
     inkscape:label="Layer 1"
     inkscape:groupmode="layer"
     id="layer1"
     transform="translate(-64.380468,-103.74589)">
    <g
       id="g3918"
       transform="translate(-365.61154,-1211.3084)">
      <path
         id="path2353"
         style="color:#000000;fill:#805ab4;fill-opacity:1;stroke-width:3.14074;stroke-linecap:round;stroke-linejoin:round"
         d="m 461.53824,1315.8597 c -0.73374,-0.015 -1.48262,0.1664 -2.17145,0.5638 -1.29189,0.7461 -2.08282,2.1208 -2.07842,3.6127 a 1.5705284,1.5705284 0 0 1 -0.005,0.034 c -0.0163,1.2228 -0.67265,2.3543 -1.73168,2.9667 a 1.5705284,1.5705284 0 0 1 -0.002,0 c -1.31435,0.7579 -2.98596,0.5674 -4.09949,-0.4625 a 1.5705284,1.5705284 0 0 1 -10e-4,0 c -0.002,0 -0.003,-3e-4 -0.005,0 a 1.5705284,1.5705284 0 0 1 -0.0155,-0.013 c -3.18051,-3.0149 -7.94608,-3.577 -11.74141,-1.386 a 1.5705284,1.5705284 0 0 1 -0.001,-5e-4 l -0.002,-5e-4 c -4.74243,2.739 -6.35441,8.7574 -3.61631,13.5005 v 5e-4 h 5.1e-4 c 2.73864,4.7428 8.75668,6.3561 13.49995,3.6184 l 10e-4,-5e-4 a 1.5705284,1.5705284 0 0 1 -10e-4,0 c 3.79508,-2.1914 5.69224,-6.5996 4.67155,-10.8614 a 1.5705284,1.5705284 0 0 1 -0.003,-0.02 h 5.2e-4 c -0.33517,-1.4793 0.33547,-3.0223 1.649,-3.7817 a 1.5705284,1.5705284 0 0 1 0.002,0 c 1.0599,-0.611 2.36786,-0.6142 3.43493,-0.017 a 1.5705284,1.5705284 0 0 1 0.032,0.013 c 1.28978,0.7498 2.87562,0.7521 4.16771,0.01 2.00301,-1.1574 2.67727,-3.6735 1.52084,-5.6772 h -5.2e-4 v -5e-4 c -0.57855,-1.0017 -1.49721,-1.6711 -2.52129,-1.9456 v -0.013 c -0.32003,-0.086 -0.65041,-0.1333 -0.98392,-0.1401 z m -0.0909,1.8459 a 2.3311775,2.3311775 0 0 1 2.33112,2.3311 2.3311775,2.3311775 0 0 1 -2.33112,2.3311 2.3311775,2.3311775 0 0 1 -2.33113,-2.3311 2.3311775,2.3311775 0 0 1 2.33113,-2.3311 z m -17.13746,4.9062 a 7.1261084,7.1261084 0 0 1 2.21744,0.233 7.1261084,7.1261084 0 0 1 5.03845,8.7276 7.1261084,7.1261084 0 0 1 -8.72712,5.0395 7.1261084,7.1261084 0 0 1 -5.03897,-8.7281 7.1261084,7.1261084 0 0 1 6.5102,-5.272 z" />
      <path
         id="path2355"
         style="color:#000000;fill:#5ab4b4;fill-opacity:1;stroke:none;stroke-width:0;stroke-linecap:round;stroke-linejoin:round;stroke-dasharray:none;stroke-opacity:1"
         d="m 437.62531,1317.3195 c -0.56837,0.3224 -1.12062,0.6871 -1.65187,1.0948 -5.66673,4.3482 -7.23805,12.2448 -3.66686,18.4307 l 2e-4,4e-4 2.2e-4,3e-4 c 3.57154,6.1857 11.19583,8.7732 17.79486,6.0397 6.59918,-2.7334 10.16002,-9.9549 8.31129,-16.8544 a 1.1048571,1.1048571 0 0 0 -1.35249,-0.7811 1.1048571,1.1048571 0 0 0 -0.78254,1.3534 c 1.56613,5.8449 -1.43241,11.9252 -7.02287,14.2409 -5.59032,2.3156 -12.00845,0.1364 -15.03406,-5.1036 l -2.2e-4,-4e-4 -2.1e-4,-4e-4 c -3.02527,-5.2403 -1.70335,-11.8881 3.09715,-15.5717 4.80063,-3.6837 11.5657,-3.2403 15.84443,1.0385 a 1.1048571,1.1048571 0 0 0 1.56331,0 1.1048571,1.1048571 0 0 0 -1.8e-4,-1.5618 c -4.57728,-4.5773 -11.60491,-5.4392 -17.10016,-2.3242 z" />
    </g>
  </g>
</svg>
